<svg version="1.1" viewBox="0.0 0.0 32.0 32.0" fill="none" stroke="none" stroke-linecap="square" stroke-miterlimit="10" xmlns:xlink="http://www.w3.org/1999/xlink" xmlns="http://www.w3.org/2000/svg"><clipPath id="p.0"><path d="m0 0l32.0 0l0 32.0l-32.0 0l0 -32.0z" clip-rule="nonzero"/></clipPath><g clip-path="url(#p.0)"><path fill="#000000" fill-opacity="0.0" d="m0 0l32.0 0l0 32.0l-32.0 0z" fill-rule="evenodd"/><path fill="#000000" fill-opacity="0.0" d="m0.015748031 7.0419946l31.999998 0l0 24.944883l-31.999998 0z" fill-rule="evenodd"/><path fill="#ff0000" d="m11.409211 12.504014l0 -1.03125q0 -1.4375 -0.96875 -1.4375q-0.4375 0 -0.6875 0.34375q-0.25 0.34375 -0.25 0.96875q0 0.203125 0.03125 0.421875q0.03125 0.21875 0.1875 0.46875q0.125 0.21875 0.359375 0.53125q0.234375 0.296875 0.59375 0.640625q0.171875 0.1875 0.390625 0.40625q0.203125 0.21875 0.484375 0.453125q0.796875 0.734375 1.46875 1.4375q0.671875 0.68749905 1.09375 1.218749q0.4375 0.5625 0.6875 1.078125q0.25 0.515625 0.375 1.0625q0.0625 0.28125 0.078125 0.578125q0.015625 0.296875 0.015625 0.625q0 0.890625 -0.1875 1.640625q-0.1875 0.75 -0.59375 1.34375q-0.375 0.5625 -0.96875 0.96875q-0.59375 0.390625 -1.3125 0.5625q-0.78125 0.203125 -1.6875 0.203125q-1.8125 0 -2.953125 -0.78125q-1.140625 -0.765625 -1.5 -2.296875q-0.203125 -0.734375 -0.203125 -1.703125l0 -1.546875l3.265625 0l0 1.5625q0 0.859375 0.359375 1.34375q0.328125 0.46875 1.0 0.46875q0.234375 0 0.453125 -0.0625q0.234375 -0.078125 0.375 -0.21875q0.140625 -0.140625 0.25 -0.328125q0.125 -0.203125 0.1875 -0.5q0.015625 -0.140625 0.03125 -0.296875q0.015625 -0.15625 0.015625 -0.3125q0 -0.3125 -0.046875 -0.53125q-0.046875 -0.234375 -0.1875 -0.5q-0.140625 -0.28125 -0.40625 -0.5625q-0.25 -0.28125 -0.59375 -0.609375q-0.1875 -0.1875 -0.421875 -0.390625q-0.234375 -0.203125 -0.5 -0.4375q-0.828125 -0.75 -1.453125 -1.359374q-0.609375 -0.625 -1.03125 -1.1875q-0.4375 -0.578125 -0.6875 -1.09375q-0.234375 -0.53125 -0.34375 -1.078125q-0.0625 -0.265625 -0.09375 -0.5625q-0.015625 -0.296875 -0.015625 -0.609375q0 -0.8125 0.171875 -1.515625q0.171875 -0.703125 0.53125 -1.234375q0.734375 -1.0312505 2.109375 -1.3906255q0.6875 -0.1875 1.5625 -0.1875q1.65625 0 2.71875 0.671875q0.359375 0.21875 0.75 0.7031255q0.40625 0.46875 0.625 1.28125q0.1875 0.671875 0.1875 1.484375l0 1.296875l-3.265625 0zm14.450913 -1.015625q0 1.796875 -0.796875 2.703125q-0.796875 0.90625 -2.578125 1.203125l0 0.234375q0.703125 0.09375 1.28125 0.3125q0.59375 0.21874905 1.046875 0.62499905q0.453125 0.390625 0.75 0.9375q0.3125 0.546875 0.453125 1.15625q0.140625 0.65625 0.140625 1.484375q0 0.859375 -0.1875 1.59375q-0.171875 0.734375 -0.546875 1.3125q-0.40625 0.609375 -0.9375 1.0q-0.53125 0.390625 -1.171875 0.59375q-0.671875 0.203125 -1.46875 0.203125l-5.234375 0l0 -17.625l5.09375 0q0.75 0 1.40625 0.1875q0.671875 0.1875 1.171875 0.53125q0.484375 0.37500048 0.828125 0.8750005q0.359375 0.484375 0.578125 1.1875q0.09375 0.34375 0.125 0.71875q0.046875 0.359375 0.046875 0.765625zm-5.046875 -1.015625l-0.71875 0l0 3.671875l0.71875 0q0.609375 0 1.0 -0.328125q0.171875 -0.15625 0.296875 -0.359375q0.125 -0.203125 0.21875 -0.515625q0.03125 -0.15625 0.046875 -0.3125q0.015625 -0.15625 0.015625 -0.3125q0 -0.6875 -0.265625 -1.140625q-0.140625 -0.203125 -0.34375 -0.375q-0.1875 -0.171875 -0.421875 -0.25q-0.28125 -0.078125 -0.546875 -0.078125zm-0.71875 11.109374l0.890625 0q0.640625 0 1.0625 -0.34375q0.21875 -0.1875 0.34375 -0.4375q0.140625 -0.265625 0.21875 -0.59375q0.078125 -0.34375 0.078125 -0.71875q0 -0.359375 -0.09375 -0.703125q-0.078125 -0.34375 -0.203125 -0.609375q-0.3125 -0.53125 -0.828125 -0.6875q-0.265625 -0.09375 -0.578125 -0.09375l-0.890625 0l0 4.1875z" fill-rule="nonzero"/></g></svg>